HIERARCHY
ROOT mixamorig:Hips
{
	OFFSET 0.000000 104.274902 0.000000
	CHANNELS 6 Xposition Yposition Zposition Xrotation Yrotation Zrotation
	JOINT mixamorig:Spine
	{
		OFFSET 0.000000 10.181549 0.131524
		CHANNELS 6 Xposition Yposition Zposition Xrotation Yrotation Zrotation
		JOINT mixamorig:Spine1
		{
			OFFSET 0.000000 9.893990 -1.470706
			CHANNELS 3 Xrotation Yrotation Zrotation
			JOINT mixamorig:Spine2
			{
				OFFSET 0.000000 9.220787 -1.370637
				CHANNELS 3 Xrotation Yrotation Zrotation
				JOINT mixamorig:Neck
				{
					OFFSET 0.000000 16.740372 -2.049022
					CHANNELS 6 Xposition Yposition Zposition Xrotation Yrotation Zrotation
					JOINT mixamorig:Head
					{
						OFFSET 0.000000 9.617859 1.684976
						CHANNELS 6 Xposition Yposition Zposition Xrotation Yrotation Zrotation
						JOINT mixamorig:HeadTop_End
						{
							OFFSET 0.000000 22.037384 7.501072
							CHANNELS 6 Xposition Yposition Zposition Xrotation Yrotation Zrotation
							End Site
							{
								OFFSET 0.000000 23.106567 -2.828246
							}
						}
					}
				}
				JOINT mixamorig:RightShoulder
				{
					OFFSET -4.570000 11.014877 -2.160840
					CHANNELS 6 Xposition Yposition Zposition Xrotation Yrotation Zrotation
					JOINT mixamorig:RightArm
					{
						OFFSET -10.592867 -0.524796 -2.232105
						CHANNELS 3 Xrotation Yrotation Zrotation
						JOINT mixamorig:RightForeArm
						{
							OFFSET -27.841497 0.000000 -0.000002
							CHANNELS 3 Xrotation Yrotation Zrotation
							JOINT mixamorig:RightHand
							{
								OFFSET -28.328812 0.000000 -0.000001
								CHANNELS 3 Xrotation Yrotation Zrotation
								JOINT mixamorig:RightHandThumb1
								{
									OFFSET -2.464798 -1.573990 2.681911
									CHANNELS 6 Xposition Yposition Zposition Xrotation Yrotation Zrotation
									JOINT mixamorig:RightHandThumb2
									{
										OFFSET -3.244781 -1.873383 1.873376
										CHANNELS 3 Xrotation Yrotation Zrotation
										JOINT mixamorig:RightHandThumb3
										{
											OFFSET -2.646263 -1.527817 1.527818
											CHANNELS 6 Xposition Yposition Zposition Xrotation Yrotation Zrotation
											JOINT mixamorig:RightHandThumb4
											{
												OFFSET -1.994591 -1.151581 1.151575
												CHANNELS 6 Xposition Yposition Zposition Xrotation Yrotation Zrotation
												End Site
												{
													OFFSET -1.860176 -1.142715 1.365483
												}
											}
										}
									}
								}
								JOINT mixamorig:RightHandIndex1
								{
									OFFSET -9.108299 -0.517883 2.259803
									CHANNELS 6 Xposition Yposition Zposition Xrotation Yrotation Zrotation
									JOINT mixamorig:RightHandIndex2
									{
										OFFSET -3.699997 0.000000 0.000000
										CHANNELS 3 Xrotation Yrotation Zrotation
										JOINT mixamorig:RightHandIndex3
										{
											OFFSET -2.850006 0.000000 0.000000
											CHANNELS 3 Xrotation Yrotation Zrotation
											JOINT mixamorig:RightHandIndex4
											{
												OFFSET -2.772194 0.000000 0.000000
												CHANNELS 3 Xrotation Yrotation Zrotation
												End Site
												{
													OFFSET -2.772202 0.000000 -0.000484
												}
											}
										}
									}
								}
								JOINT mixamorig:RightHandMiddle1
								{
									OFFSET -9.532501 0.000000 -0.000000
									CHANNELS 6 Xposition Yposition Zposition Xrotation Yrotation Zrotation
									JOINT mixamorig:RightHandMiddle2
									{
										OFFSET -3.699997 0.000000 0.000000
										CHANNELS 3 Xrotation Yrotation Zrotation
										JOINT mixamorig:RightHandMiddle3
										{
											OFFSET -2.949997 0.000000 0.000000
											CHANNELS 3 Xrotation Yrotation Zrotation
											JOINT mixamorig:RightHandMiddle4
											{
												OFFSET -2.946594 0.000000 0.000000
												CHANNELS 3 Xrotation Yrotation Zrotation
												End Site
												{
													OFFSET -2.946602 0.000000 -0.000982
												}
											}
										}
									}
								}
								JOINT mixamorig:RightHandRing1
								{
									OFFSET -9.103600 -0.043106 -1.865100
									CHANNELS 6 Xposition Yposition Zposition Xrotation Yrotation Zrotation
									JOINT mixamorig:RightHandRing2
									{
										OFFSET -3.379303 0.000000 0.000000
										CHANNELS 3 Xrotation Yrotation Zrotation
										JOINT mixamorig:RightHandRing3
										{
											OFFSET -2.889694 0.000000 0.000000
											CHANNELS 3 Xrotation Yrotation Zrotation
											JOINT mixamorig:RightHandRing4
											{
												OFFSET -2.638802 0.000000 0.000000
												CHANNELS 3 Xrotation Yrotation Zrotation
												End Site
												{
													OFFSET -2.638802 0.000000 0.004218
												}
											}
										}
									}
								}
								JOINT mixamorig:RightHandPinky1
								{
									OFFSET -8.076698 -0.486725 -3.806299
									CHANNELS 6 Xposition Yposition Zposition Xrotation Yrotation Zrotation
									JOINT mixamorig:RightHandPinky2
									{
										OFFSET -3.600006 0.000000 0.000000
										CHANNELS 3 Xrotation Yrotation Zrotation
										JOINT mixamorig:RightHandPinky3
										{
											OFFSET -2.099998 0.000000 0.000000
											CHANNELS 3 Xrotation Yrotation Zrotation
											JOINT mixamorig:RightHandPinky4
											{
												OFFSET -2.115791 0.000000 0.000000
												CHANNELS 3 Xrotation Yrotation Zrotation
												End Site
												{
													OFFSET -2.115799 0.000000 0.000174
												}
											}
										}
									}
								}
							}
						}
					}
				}
				JOINT mixamorig:LeftShoulder
				{
					OFFSET 4.570400 11.014679 -2.160816
					CHANNELS 6 Xposition Yposition Zposition Xrotation Yrotation Zrotation
					JOINT mixamorig:LeftArm
					{
						OFFSET 10.592373 -0.524597 -2.232116
						CHANNELS 3 Xrotation Yrotation Zrotation
						JOINT mixamorig:LeftForeArm
						{
							OFFSET 27.841488 0.000000 0.000001
							CHANNELS 3 Xrotation Yrotation Zrotation
							JOINT mixamorig:LeftHand
							{
								OFFSET 28.328808 0.000000 -0.000000
								CHANNELS 3 Xrotation Yrotation Zrotation
								JOINT mixamorig:LeftHandThumb1
								{
									OFFSET 2.466103 -1.576202 2.681698
									CHANNELS 6 Xposition Yposition Zposition Xrotation Yrotation Zrotation
									JOINT mixamorig:LeftHandThumb2
									{
										OFFSET 3.243317 -1.872528 1.872530
										CHANNELS 3 Xrotation Yrotation Zrotation
										JOINT mixamorig:LeftHandThumb3
										{
											OFFSET 2.647881 -1.528763 1.528754
											CHANNELS 6 Xposition Yposition Zposition Xrotation Yrotation Zrotation
											JOINT mixamorig:LeftHandThumb4
											{
												OFFSET 1.998924 -1.154083 1.154080
												CHANNELS 6 Xposition Yposition Zposition Xrotation Yrotation Zrotation
												End Site
												{
													OFFSET 1.884041 -1.149155 1.337651
												}
											}
										}
									}
								}
								JOINT mixamorig:LeftHandIndex1
								{
									OFFSET 9.109299 -0.518005 2.259900
									CHANNELS 6 Xposition Yposition Zposition Xrotation Yrotation Zrotation
									JOINT mixamorig:LeftHandIndex2
									{
										OFFSET 3.699997 0.000000 0.000000
										CHANNELS 3 Xrotation Yrotation Zrotation
										JOINT mixamorig:LeftHandIndex3
										{
											OFFSET 2.850006 0.000000 0.000000
											CHANNELS 3 Xrotation Yrotation Zrotation
											JOINT mixamorig:LeftHandIndex4
											{
												OFFSET 2.774895 0.000000 0.000000
												CHANNELS 3 Xrotation Yrotation Zrotation
												End Site
												{
													OFFSET 2.774902 0.000000 -0.000072
												}
											}
										}
									}
								}
								JOINT mixamorig:LeftHandMiddle1
								{
									OFFSET 9.533401 0.000000 0.000000
									CHANNELS 6 Xposition Yposition Zposition Xrotation Yrotation Zrotation
									JOINT mixamorig:LeftHandMiddle2
									{
										OFFSET 3.699997 0.000000 0.000000
										CHANNELS 3 Xrotation Yrotation Zrotation
										JOINT mixamorig:LeftHandMiddle3
										{
											OFFSET 2.949997 0.000000 0.000000
											CHANNELS 3 Xrotation Yrotation Zrotation
											JOINT mixamorig:LeftHandMiddle4
											{
												OFFSET 2.952896 0.000000 0.000000
												CHANNELS 3 Xrotation Yrotation Zrotation
												End Site
												{
													OFFSET 2.952904 0.000000 0.000165
												}
											}
										}
									}
								}
								JOINT mixamorig:LeftHandRing1
								{
									OFFSET 9.104500 -0.042999 -1.865101
									CHANNELS 6 Xposition Yposition Zposition Xrotation Yrotation Zrotation
									JOINT mixamorig:LeftHandRing2
									{
										OFFSET 3.149994 0.000000 0.000000
										CHANNELS 3 Xrotation Yrotation Zrotation
										JOINT mixamorig:LeftHandRing3
										{
											OFFSET 2.950005 0.000000 0.000000
											CHANNELS 3 Xrotation Yrotation Zrotation
											JOINT mixamorig:LeftHandRing4
											{
												OFFSET 2.644302 0.000000 0.000000
												CHANNELS 3 Xrotation Yrotation Zrotation
												End Site
												{
													OFFSET 2.644302 0.000000 0.000083
												}
											}
										}
									}
								}
								JOINT mixamorig:LeftHandPinky1
								{
									OFFSET 8.077805 -0.486893 -3.806302
									CHANNELS 6 Xposition Yposition Zposition Xrotation Yrotation Zrotation
									JOINT mixamorig:LeftHandPinky2
									{
										OFFSET 3.600006 0.000000 0.000000
										CHANNELS 3 Xrotation Yrotation Zrotation
										JOINT mixamorig:LeftHandPinky3
										{
											OFFSET 2.099998 0.000000 0.000000
											CHANNELS 3 Xrotation Yrotation Zrotation
											JOINT mixamorig:LeftHandPinky4
											{
												OFFSET 2.125496 0.000000 0.000000
												CHANNELS 3 Xrotation Yrotation Zrotation
												End Site
												{
													OFFSET 2.125504 0.000000 -0.001254
												}
											}
										}
									}
								}
							}
						}
					}
				}
			}
		}
	}
	JOINT mixamorig:RightUpLeg
	{
		OFFSET -8.207800 -6.751701 -1.599544
		CHANNELS 6 Xposition Yposition Zposition Xrotation Yrotation Zrotation
		JOINT mixamorig:RightLeg
		{
			OFFSET 0.000004 -44.370152 0.345934
			CHANNELS 3 Xrotation Yrotation Zrotation
			JOINT mixamorig:RightFoot
			{
				OFFSET 0.000004 -44.423664 -3.043535
				CHANNELS 3 Xrotation Yrotation Zrotation
				JOINT mixamorig:RightToeBase
				{
					OFFSET 0.000001 -8.728691 10.710592
					CHANNELS 3 Xrotation Yrotation Zrotation
					JOINT mixamorig:RightToe_End
					{
						OFFSET 0.000000 -0.000665 9.278101
						CHANNELS 3 Xrotation Yrotation Zrotation
						End Site
						{
							OFFSET 0.000000 -0.000665 9.278103
						}
					}
				}
			}
		}
	}
	JOINT mixamorig:LeftUpLeg
	{
		OFFSET 8.207800 -6.751701 -1.599544
		CHANNELS 6 Xposition Yposition Zposition Xrotation Yrotation Zrotation
		JOINT mixamorig:LeftLeg
		{
			OFFSET 0.000004 -44.370037 0.346940
			CHANNELS 3 Xrotation Yrotation Zrotation
			JOINT mixamorig:LeftFoot
			{
				OFFSET 0.000004 -44.423611 -3.044388
				CHANNELS 3 Xrotation Yrotation Zrotation
				JOINT mixamorig:LeftToeBase
				{
					OFFSET 0.000001 -8.728690 10.710592
					CHANNELS 3 Xrotation Yrotation Zrotation
					JOINT mixamorig:LeftToe_End
					{
						OFFSET 0.000000 -0.000680 9.278101
						CHANNELS 3 Xrotation Yrotation Zrotation
						End Site
						{
							OFFSET 0.000000 -0.000680 9.278101
						}
					}
				}
			}
		}
	}
}
MOTION
Frames: 4
Frame Time: 0.033333
-6.218211 139.390289 13.680031 -169.145468 11.406723 5.860383 0.000001 10.181550 0.131523 11.293387 0.336783 -0.209766 22.586964 0.935418 -0.271158 22.586961 0.935413 -0.271158 -0.000001 16.740364 -2.049017 -33.596041 -5.238154 -1.456596 0.000001 9.617839 1.684989 -33.043858 -10.697173 -1.887640 0.000000 22.037369 7.501071 0.000000 0.000000 0.000000 -4.570004 11.014879 -2.160843 0.091813 25.851496 7.301900 -24.768093 4.822030 30.957682 -7.695532 64.373495 17.984633 -18.300083 -7.009155 11.182013 -2.464805 -1.573996 2.681904 2.423312 -1.753223 13.055811 20.946508 -6.068409 -8.358671 -2.646276 -1.527811 1.527807 0.000021 0.000010 -0.000001 -1.994581 -1.151598 1.151587 -0.000000 -0.000002 -0.000004 -9.108306 -0.517883 2.259803 -1.246220 -0.780114 49.772869 -2.585093 0.052359 41.826449 -0.000001 0.000000 -0.000000 -0.000001 -0.000003 -0.000001 -9.532502 0.000016 0.000005 -4.892953 0.569173 44.664871 -3.401787 0.838743 39.195071 -0.000004 -0.000002 0.000001 -0.000001 -0.000001 0.000003 -9.103604 -0.043110 -1.865096 -5.365654 2.853700 47.594350 1.056304 4.036670 23.735841 0.000002 -0.000001 0.000001 0.000003 0.000002 -0.000001 -8.076689 -0.486730 -3.806291 -1.461437 7.794889 41.978530 -2.920973 7.698742 22.009665 0.000001 -0.000001 0.000000 0.000001 -0.000001 0.000002 4.570401 11.014692 -2.160816 -3.506908 -36.462176 -14.238672 -13.602983 -1.767369 -16.068170 -19.983822 -60.791259 -26.048644 -14.113146 -16.417075 -6.316050 2.466089 -1.576197 2.681705 -6.518423 6.204120 -1.781960 -0.765972 0.355808 0.342423 2.647876 -1.528735 1.528750 -0.000001 0.000001 0.000008 1.998929 -1.154092 1.154077 -0.000002 0.000004 0.000001 9.109270 -0.518008 2.259904 1.033033 -1.029979 -40.278288 -1.549360 -0.202929 -30.007876 0.000004 0.000003 0.000001 0.000005 0.000004 0.000001 9.533384 0.000004 0.000000 -0.319708 -3.227798 -40.178953 -1.876133 -1.640400 -27.563666 -0.000002 -0.000000 0.000003 -0.000002 -0.000001 0.000000 9.104510 -0.042991 -1.865098 -4.235230 -0.042423 -43.672964 0.357734 -2.443824 -22.303511 0.000001 0.000001 0.000000 0.000000 0.000001 -0.000000 8.077796 -0.486892 -3.806300 -8.013061 0.665812 -41.852708 0.448900 -6.158286 -26.654033 -0.000020 -0.000010 0.000010 -0.000002 -0.000001 -0.000001 -8.207799 -6.751711 -1.599532 -83.938169 12.034311 10.546691 112.600921 -9.648251 -5.225807 4.142407 6.099229 15.883707 -6.088769 -3.574466 3.919984 -0.000003 0.000001 -0.000000 8.207798 -6.751709 -1.599543 -77.035573 1.557193 10.893686 113.482446 -14.847781 -4.587815 -9.178754 1.356059 -2.997275 0.250216 1.196894 -0.922021 0.000003 -0.000002 -0.000000 
-6.169536 141.619095 16.126520 -188.620633 9.756916 9.210736 0.000002 10.181551 0.131524 12.718185 0.917771 0.873295 25.446788 1.354793 0.663520 25.446765 1.354796 0.663522 0.000004 16.740356 -2.049026 -27.686904 -4.330464 -3.554711 0.000001 9.617847 1.684986 -33.568676 -10.220809 -1.723292 0.000001 22.037354 7.501075 -0.000001 0.000000 -0.000000 -4.569996 11.014878 -2.160851 0.340867 25.022767 6.291884 -25.872806 2.125879 24.558427 -18.120154 69.669186 24.631404 -21.983669 -8.236336 9.290865 -2.464795 -1.573994 2.681918 -3.343984 -4.414504 12.404758 20.871436 -5.872140 -8.329963 -2.646273 -1.527801 1.527820 0.000016 0.000013 0.000001 -1.994606 -1.151584 1.151557 -0.000001 -0.000002 0.000003 -9.108313 -0.517877 2.259814 -1.098608 -0.541373 49.312600 -2.606165 0.047459 41.831535 0.000001 0.000001 0.000000 0.000004 0.000001 -0.000001 -9.532495 0.000001 0.000001 -4.441516 0.391833 44.251553 -3.216751 0.597969 35.688124 0.000000 -0.000001 -0.000001 0.000002 -0.000003 0.000002 -9.103604 -0.043104 -1.865093 -5.217713 2.629022 44.599182 0.952070 4.263235 26.712440 0.000000 -0.000001 0.000000 0.000005 0.000001 -0.000001 -8.076694 -0.486727 -3.806294 -2.367746 5.371446 39.291616 -1.673216 8.190561 21.181644 -0.000003 0.000002 -0.000002 -0.000002 0.000002 -0.000002 4.570402 11.014683 -2.160820 -3.545890 -36.589050 -14.017307 -14.399321 2.726261 -12.531664 -40.581412 -66.665003 -43.097315 -19.585113 -15.499306 -7.402073 2.466106 -1.576195 2.681691 -6.338638 6.204675 0.372996 -0.748481 0.391326 0.343656 2.647880 -1.528740 1.528759 0.000001 -0.000001 0.000010 1.998924 -1.154095 1.154082 -0.000001 -0.000004 -0.000000 9.109286 -0.518007 2.259900 1.159435 -0.982640 -41.640856 -1.578917 -0.251410 -30.484261 -0.000001 -0.000000 -0.000000 -0.000002 -0.000000 0.000000 9.533391 -0.000000 0.000003 -0.633276 -3.301392 -42.509185 -1.890124 -1.669805 -27.866835 0.000002 0.000001 0.000002 -0.000005 0.000001 0.000001 9.104490 -0.043004 -1.865090 -4.356532 -0.168963 -42.673526 0.331303 -2.504883 -23.385562 -0.000002 -0.000001 -0.000001 -0.000002 -0.000002 0.000000 8.077806 -0.486890 -3.806294 -8.217981 0.309936 -42.061903 0.449189 -6.150171 -26.097649 -0.000018 -0.000011 0.000010 -0.000002 0.000001 -0.000000 -8.207797 -6.751697 -1.599546 -86.439281 7.640700 3.847208 115.150719 -3.494727 -5.623615 4.511786 5.893423 14.580837 -6.231375 -6.985681 6.690272 -0.000001 -0.000001 -0.000000 8.207802 -6.751687 -1.599549 -84.783568 2.821911 11.007562 125.097496 -12.229729 -2.908936 -13.570923 1.614669 -3.626302 0.438179 1.996484 -1.540878 0.000001 0.000001 0.000000 
-5.859741 143.307800 18.216278 -208.266579 5.334205 12.218705 -0.000000 10.181578 0.131540 13.170558 1.698368 1.343950 26.371077 2.062794 0.969093 26.371063 2.062788 0.969091 0.000001 16.740379 -2.049012 -20.940950 -4.243418 -3.784677 -0.000001 9.617848 1.684976 -32.335915 -8.818401 -1.093473 -0.000000 22.037369 7.501079 0.000001 -0.000000 -0.000001 -4.569999 11.014874 -2.160838 0.730872 24.928258 4.375560 -25.324528 -0.858579 18.489168 -23.354271 71.848454 27.612237 -23.749220 -6.522095 9.968940 -2.464812 -1.573998 2.681880 -9.251621 -6.808262 11.229899 20.814648 -5.700207 -8.309071 -2.646256 -1.527809 1.527822 0.000020 0.000013 -0.000000 -1.994594 -1.151583 1.151578 0.000001 -0.000003 0.000001 -9.108301 -0.517875 2.259777 -1.095565 -0.576440 47.082229 -2.636911 0.069285 42.139412 0.000004 -0.000001 0.000000 0.000004 0.000000 0.000002 -9.532516 0.000006 -0.000019 -3.991592 0.214941 43.877009 -3.033721 0.324025 31.846539 -0.000003 -0.000003 -0.000003 -0.000003 -0.000001 -0.000002 -9.103604 -0.043103 -1.865118 -5.129673 2.503553 42.167047 0.799366 4.541886 30.475303 0.000001 0.000000 -0.000001 -0.000002 0.000000 0.000001 -8.076698 -0.486734 -3.806315 -3.667591 3.109678 37.372849 -0.340113 8.654112 21.223175 -0.000001 0.000001 -0.000001 -0.000001 0.000000 0.000000 4.570403 11.014708 -2.160813 -3.101892 -36.573522 -12.349822 -13.428824 7.243834 -13.436400 -64.058118 -70.022560 -65.124638 -23.002902 -17.351898 -10.266357 2.466088 -1.576188 2.681701 -7.219822 5.490197 2.136312 -0.784137 0.327796 0.329994 2.647881 -1.528750 1.528752 0.000002 0.000004 0.000009 1.998917 -1.154094 1.154085 0.000002 -0.000001 -0.000000 9.109292 -0.518008 2.259891 1.139972 -1.339419 -39.364771 -1.603848 -0.291660 -30.855827 -0.000001 -0.000001 -0.000000 -0.000001 0.000001 -0.000000 9.533408 0.000015 0.000004 -0.665767 -3.206848 -42.049165 -1.920602 -1.729366 -28.398883 0.000002 0.000003 0.000002 -0.000001 0.000001 0.000000 9.104493 -0.042990 -1.865089 -4.156263 -0.041802 -40.260700 0.298542 -2.581422 -24.862264 -0.000000 -0.000000 -0.000001 0.000001 0.000000 -0.000000 8.077796 -0.486891 -3.806297 -7.937118 0.662208 -40.145168 0.466393 -6.130217 -25.516350 -0.000020 -0.000009 0.000010 0.000000 0.000001 0.000001 -8.207803 -6.751697 -1.599533 -90.283237 5.179919 -1.692639 114.113671 2.245144 -5.704007 7.758378 5.108476 12.462114 -6.045379 -8.381434 7.709003 0.000000 -0.000000 -0.000000 8.207802 -6.751694 -1.599527 -99.011549 3.637668 13.415811 131.434519 -8.321114 -2.190841 -8.776442 2.319680 -4.670550 0.247986 2.660620 -2.105719 -0.000000 0.000001 -0.000001 
-4.965128 141.126099 17.774067 -227.518150 1.130889 15.531948 0.000003 10.181566 0.131533 12.807984 1.807519 0.665500 25.639635 2.337673 0.259452 25.639632 2.337669 0.259449 -0.000000 16.740374 -2.049016 -13.672055 -4.559816 -1.903228 -0.000001 9.617821 1.684986 -29.685976 -6.850355 -0.281859 -0.000002 22.037384 7.501079 0.000002 0.000000 -0.000001 -4.570002 11.014885 -2.160841 0.837447 25.129625 3.673516 -24.012732 -2.734395 18.239957 -17.191251 72.401747 20.157550 -20.651196 -2.312645 8.373178 -2.464802 -1.573998 2.681912 -13.688343 -7.953331 9.297257 20.852416 -5.729418 -8.257083 -2.646258 -1.527794 1.527839 0.000021 0.000015 -0.000002 -1.994594 -1.151570 1.151577 0.000001 -0.000007 0.000001 -9.108280 -0.517867 2.259817 -1.033957 -0.979388 44.620243 -2.709926 0.152323 43.266185 -0.000000 0.000002 0.000003 0.000001 0.000004 0.000001 -9.532488 0.000004 0.000008 -3.654987 -0.026727 43.661417 -2.892618 0.084644 28.785337 -0.000001 -0.000001 -0.000001 0.000000 0.000001 0.000001 -9.103617 -0.043108 -1.865095 -5.260490 2.473092 40.899166 0.650420 4.777909 33.712502 -0.000000 0.000000 0.000001 -0.000001 0.000001 -0.000002 -8.076694 -0.486723 -3.806289 -5.149943 1.578219 36.830648 0.722477 9.095835 21.766872 0.000001 0.000000 0.000000 0.000001 0.000001 0.000000 4.570400 11.014683 -2.160816 -1.854374 -35.287175 -8.412488 -11.195798 11.067267 -18.457541 -85.867649 -71.902945 -85.976762 -23.361327 -20.041332 -10.762691 2.466100 -1.576224 2.681697 -8.811776 5.289882 3.386048 -0.778579 0.324232 0.334129 2.647876 -1.528754 1.528745 0.000002 -0.000001 0.000008 1.998914 -1.154084 1.154087 0.000000 -0.000000 -0.000002 9.109286 -0.518011 2.259900 1.043366 -1.348012 -37.564866 -1.629520 -0.335103 -31.265109 0.000000 0.000001 -0.000000 -0.000001 -0.000002 -0.000001 9.533400 0.000000 -0.000000 -0.694210 -3.112873 -40.912034 -1.956268 -1.796091 -29.085015 0.000000 0.000001 0.000003 0.000001 -0.000002 -0.000000 9.104514 -0.042988 -1.865098 -4.005275 -0.070843 -38.234723 0.265361 -2.663956 -26.334426 -0.000001 -0.000001 -0.000002 -0.000001 -0.000001 0.000000 8.077810 -0.486882 -3.806304 -7.531795 0.678700 -37.214696 0.493547 -6.109038 -24.672243 -0.000020 -0.000010 0.000010 -0.000001 -0.000000 0.000001 -8.207802 -6.751704 -1.599534 -90.716325 5.159259 -3.949573 106.655863 -0.509981 -5.286381 7.545896 6.338447 12.393174 -6.018634 -6.252750 5.603886 0.000001 -0.000000 -0.000002 8.207802 -6.751692 -1.599537 -110.956143 1.933823 16.203651 127.386143 -5.875800 -4.000220 1.687416 3.635586 -7.589004 -0.991706 -2.521589 1.806119 -0.000004 0.000000 -0.000000 
